<mxfile host="app.diagrams.net" modified="2022-12-29T09:41:07.850Z" agent="5.0 (Windows NT 10.0; Win64; x64) AppleWebKit/537.36 (KHTML, like Gecko) Chrome/108.0.0.0 Safari/537.36" version="20.7.4" etag="033R1TDMMgi3gVAefYnv" type="github">
  <diagram id="2l6POookc13yUhbBXWqV" name="第 1 页">
    <mxGraphModel dx="1467" dy="371" grid="0" gridSize="10" guides="0" tooltips="1" connect="1" arrows="1" fold="1" page="1" pageScale="1" pageWidth="827" pageHeight="1169" math="0" shadow="0">
      <root>
        <mxCell id="0" />
        <mxCell id="1" parent="0" />
        <mxCell id="GEyLh_Zw_DPHrhrjRqtt-1" value="Text" style="text;html=1;align=center;verticalAlign=middle;resizable=0;points=[];autosize=1;strokeColor=none;fillColor=none;" vertex="1" parent="1">
          <mxGeometry x="115" y="98" width="50" height="30" as="geometry" />
        </mxCell>
        <mxCell id="GEyLh_Zw_DPHrhrjRqtt-2" value="Text" style="text;html=1;align=center;verticalAlign=middle;resizable=0;points=[];autosize=1;strokeColor=none;fillColor=none;" vertex="1" parent="1">
          <mxGeometry x="-82" y="85" width="50" height="30" as="geometry" />
        </mxCell>
      </root>
    </mxGraphModel>
  </diagram>
</mxfile>
